Coordinates																
version=1																
nRows=31																
nColumns=17																
inDegrees=yes																
																
"Units are S.I. units (second, meters, Newtons, ...)"																
"If the header above contains a line with 'inDegrees', this indicates whether rotational values are in degrees (yes) or radians (no)."																
																
endheader																
time	/jointset/hip_l/hip_flexion_l/value	/jointset/hip_l/hip_adduction_l/value	/jointset/hip_l/hip_rotation_l/value	/jointset/hip_r/hip_flexion_r/value	/jointset/hip_r/hip_adduction_r/value	/jointset/hip_r/hip_rotation_r/value	/jointset/walker_knee_l/knee_angle_l/value	/jointset/walker_knee_l/knee_adduction_l/value	/jointset/walker_knee_r/knee_angle_r/value	/jointset/walker_knee_r/knee_adduction_r/value	/jointset/ankle_l/ankle_angle_l/value	/jointset/ankle_r/ankle_angle_r/value	/jointset/subtalar_l/subtalar_angle_l/value	/jointset/subtalar_r/subtalar_angle_r/value	/jointset/mtp_l/mtp_angle_l/value	/jointset/mtp_r/mtp_angle_r/value
0.01	-21.05497733	-10.02331155	-19.4275194	70.83340272	-21.9220795	-36.8992691	89.79567532	7.49782	3.34510207	12.4629	43.06489492	-37.03561756	0.8545865	31.65013212	2.58330447	-30.85817797
0.02	16.37951415	-29.20372454	-8.32148995	1.1823625	5.46020809	30.18310816	24.78515619	-24.7653	94.71856729	4.09599	46.63074678	-20.31630958	-8.28016764	-9.45033551	-11.10225526	0.06827078
0.03	106.6353907	-28.58969473	-23.27577719	44.87771286	-5.03726752	21.59808677	65.25622978	-26.2998	92.50342147	25.6947	21.35346523	-12.17567095	-18.75658879	-19.90898955	-22.69708524	-42.3990351
0.04	-21.87998111	-31.5536735	32.63245249	8.27848821	2.19102002	-8.08118051	15.85420369	0.185865	129.8968633	13.0203	-5.83685375	-22.84427081	16.25174146	33.85371234	-43.22554387	-10.41397911
0.05	67.81864174	-16.01989694	25.49471417	68.00145801	16.19388935	1.33383435	76.3541121	8.24734	45.83699437	-8.80852	1.74368934	-15.6308316	23.45133641	12.45883666	-38.93850008	-25.84081377
0.06	12.63492323	-21.45553362	17.36037739	-7.10207166	-43.52259558	-13.16647246	82.92312261	-20.4786	80.64235249	-21.2365	-5.4730752	11.5745735	-32.38204047	-22.02635621	-33.09102328	-33.30706393
0.07	100.2853085	2.68281371	10.81598182	51.53824189	-5.83534727	19.35525744	32.38620117	25.2561	55.33967999	-10.5227	47.35294072	-18.08701184	-21.0972605	-32.13989679	-16.1587013	-28.04029805
0.08	71.04501972	-19.07849484	-17.71323154	36.04054397	-8.91194752	-24.23813339	30.86970636	7.81368	2.70049482	29.3621	-0.44702557	-4.71375997	9.35909985	18.47311636	1.92667406	-23.66026079
0.09	14.52230348	2.58531339	-33.14863558	107.6800092	6.96125497	-2.3840976	42.11675657	-19.107	107.6769692	0.854035	-31.01577634	26.70757955	9.03331387	-31.82965414	-11.77096241	-36.50978471
0.1	10.91403983	-0.97959059	-27.23468572	23.64951842	-19.23722238	2.92584188	4.40971476	13.6005	107.4456438	19.6719	-49.09059381	-34.39805528	-31.00003508	-23.1471023	-12.74679747	-18.3484969
0.11	47.64452737	6.0304221	28.75219735	95.57954769	-28.68654054	-35.57779974	45.25429764	17.6747	89.41316832	-7.51847	2.05248448	-17.10584119	-1.57281375	7.29920642	-42.65763858	-1.714616
0.12	99.02565225	-24.07348597	18.57163487	-28.69470653	-5.31928408	-27.95117835	69.84650403	23.8838	7.31446422	14.6369	-16.4742382	-18.34536567	5.96219458	-0.63749765	-18.20777079	1.0047362
0.13	31.20888491	10.0095827	27.2362977	26.60571932	19.68441101	-12.42861296	120.2015345	-10.5792	57.4831809	-25.0256	26.78704934	-9.25722646	-20.8899463	-31.79287299	-11.30002511	-18.41001427
0.14	113.1067161	18.95777516	-12.62587165	48.02906215	-19.02427161	18.11063711	89.06416191	-27.6833	130.6090731	20.219	-46.32891053	-16.38760561	-12.88209823	21.48456589	-25.94122337	-34.98491537
0.15	87.39772769	0.80258217	-25.76071665	44.50043932	13.13300127	5.20454302	72.81686054	-1.96916	120.6906867	-1.43741	-25.98759723	24.98159003	33.28091456	-6.8791189	1.91924434	-0.83532316
0.16	-9.70370547	4.58162245	19.88975511	50.28998854	-16.89210916	-22.51021109	67.8415116	1.36789	57.56514061	-9.54761	42.01088345	48.38613402	-3.62803111	-7.36940996	-39.23655038	-36.3070624
0.17	7.84888949	18.15619919	-21.91615062	84.48468191	16.95619507	5.04599608	16.11508744	-16.6638	68.42891314	-16.8783	-12.50745866	47.36632523	-12.09033842	-11.80529179	-13.17317441	-40.12242485
0.18	57.32960312	-13.14258925	34.46778265	97.30544964	-41.26509596	-4.98776165	106.7476647	-6.33843	96.85167973	8.24117	32.03612345	-17.4531615	23.03902875	-17.9377665	-15.50078437	-13.36987705
0.19	86.15995345	6.40043518	-28.94902819	108.7397913	-17.70397418	32.82901758	71.53476028	27.7703	90.08411399	-6.78294	24.99156453	-30.61618684	33.34350652	-34.14737284	-30.93970196	-38.07789897
0.2	95.02900095	-8.14314131	-10.16802765	72.05924477	-45.7487291	-33.76314716	15.41168754	14.9653	136.1850368	-10.2929	-6.25906934	-22.02900947	-1.79628726	19.04469625	-8.22298633	2.79550523
0.21	13.57917288	-11.43609719	27.01173244	-21.20046187	18.46203256	5.54811049	53.80974079	-20.0496	85.27219864	-0.917883	39.2909517	34.21802987	14.0175018	11.76154445	-4.51039443	-24.16599471
0.22	110.314188	-4.73114167	-7.65322717	-6.6994683	15.95684046	-17.71669634	76.65157017	-22.8022	65.9588791	29.9281	-43.92379881	46.02808813	13.86969818	31.82264477	4.04454591	-13.71136106
0.23	28.78312599	5.53698776	-15.8624206	40.09346805	-16.449963	16.13147434	126.401645	-7.08033	53.57877342	22.2908	2.25213825	17.34190961	34.88129397	-3.88055147	-31.96193244	-30.66212261
0.24	46.8400857	18.53888748	-8.21392683	-10.97990193	-16.79372195	-5.30354434	103.9261359	-7.75368	122.1270905	-4.13885	-2.16305871	28.23887755	-27.33917021	-17.42064899	-19.38375064	-16.64236936
0.25	61.33782319	8.70570955	-29.24807433	12.10564875	-39.52891283	16.6560248	10.14308847	-27.5969	126.0296531	27.2517	-47.55970611	-10.14661885	-28.70521334	5.65254091	-40.18360911	-8.49529635
0.26	102.3330712	-33.79614935	-28.55682941	31.53413035	-10.14687715	-37.03200905	32.8073184	-16.0518	8.5622704	19.3672	-8.88325677	8.6399723	17.22887554	-32.72955298	2.65061192	4.12793934
0.27	4.70707737	-39.12875235	-29.21671767	43.41606607	-3.408054	27.54450193	58.12503647	-24.7676	33.5063243	0.560261	19.47793625	7.27215463	1.98864819	-12.73632782	-28.30385357	-31.55747196
0.28	100.7612731	-27.93072285	-8.28247566	70.37196882	4.83982914	-3.37576925	106.8773607	-4.89415	32.06922492	-19.9284	18.936658	-14.9794284	33.0162781	-1.46497185	-27.42674173	-11.42336198
0.29	92.88515167	10.83180452	-8.43522337	45.69704748	10.81267778	-29.06265759	129.4511092	-5.2842	136.6489113	15.4215	47.23258089	-23.99932987	14.6099657	23.67500531	-2.42310042	-3.76297176
0.3	118.130895	-34.517658	26.07294089	68.32686616	8.43156152	-3.86309526	121.8767154	17.7946	10.3680861	-28.0486	-4.82472281	40.52705054	22.28436813	10.70607624	-39.16536987	-31.43067545
0.31	81.03530054	17.76590901	-20.22071958	34.78618147	-44.99091711	-27.30243758	64.03520229	-14.6239	94.99210747	12.9169	2.27389542	-22.35357511	-22.93555238	-9.46536499	-9.12831449	3.52360855
